<svg width="40" height="40" viewBox="0 0 40 40" fill="none" xmlns="http://www.w3.org/2000/svg">
<path d="M30 33.4001H10C8.89545 33.4001 8 32.5047 8 31.4001V30.732C8 27.8257 9.80305 25.2243 12.5245 24.2044C17.3444 22.3979 22.6556 22.3979 27.4755 24.2044C30.197 25.2243 32 27.8257 32 30.732V31.4001C32 32.5047 31.1046 33.4001 30 33.4001Z" stroke="white" stroke-width="2" stroke-linecap="round" stroke-linejoin="round"/>
<path d="M16.9505 21.0336C18.8645 22.0168 21.1351 22.0168 23.0491 21.0336C24.8304 20.1186 26.1066 18.4521 26.5256 16.4939L26.6374 15.9712C27.0659 13.9687 26.6082 11.8788 25.382 10.2386L25.2025 9.9985C23.9761 8.35815 22.0479 7.39225 19.9998 7.39225C17.9517 7.39225 16.0235 8.35815 14.7972 9.9985L14.6176 10.2386C13.3914 11.8788 12.9337 13.9687 13.3622 15.9712L13.474 16.4939C13.893 18.4521 15.1693 20.1186 16.9505 21.0336Z" stroke="white" stroke-width="2" stroke-linecap="round" stroke-linejoin="round"/>
</svg>
