<svg width="40" height="40" viewBox="0 0 40 40" fill="none" xmlns="http://www.w3.org/2000/svg">
<path d="M19.8639 11.9642L18.4498 10.55C17.137 9.23725 15.3565 8.49975 13.5 8.49975C11.6435 8.49975 9.863 9.23725 8.55025 10.55C7.2375 11.8628 6.5 13.6433 6.5 15.4998C6.5 17.3563 7.2375 19.1367 8.55025 20.4495L15.5906 27.4899C15.6008 27.5002 15.611 27.5104 15.6212 27.5207L19.1568 31.0562C19.352 31.2515 19.608 31.3491 19.8639 31.3491" stroke="white" stroke-width="2" stroke-linecap="round" stroke-linejoin="round"/>
<path d="M19.864 11.9642L21.2782 10.55C22.5909 9.23725 24.3714 8.49975 26.2279 8.49975C28.0844 8.49975 29.8649 9.23725 31.1777 10.55C32.4904 11.8628 33.2279 13.6433 33.2279 15.4998C33.2279 17.3563 32.4904 19.1367 31.1777 20.4495L20.5711 31.0561C20.3758 31.2514 20.1199 31.349 19.864 31.349" stroke="white" stroke-width="2" stroke-linecap="round" stroke-linejoin="round"/>
</svg>
